<svg width="76" height="76" viewBox="0 0 76 76" fill="none" xmlns="http://www.w3.org/2000/svg">
<path d="M27 30.747C27 28.6759 28.6789 26.997 30.75 26.997H45.25C47.3211 26.997 49 28.6759 49 30.747V45.247C49 47.3181 47.3211 48.997 45.25 48.997H30.75C28.6789 48.997 27 47.3181 27 45.247V30.747ZM30.75 28.497C29.5074 28.497 28.5 29.5044 28.5 30.747V45.247C28.5 46.4897 29.5074 47.497 30.75 47.497H40V28.497H30.75ZM45.25 47.497C46.4926 47.497 47.5 46.4897 47.5 45.247V42.497H41.5V47.497H45.25ZM47.5 40.997V34.997H41.5V40.997H47.5ZM47.5 33.497V30.747C47.5 29.5044 46.4926 28.497 45.25 28.497H41.5V33.497H47.5ZM31.75 31.497C31.0596 31.497 30.5 32.0567 30.5 32.747V36.247C30.5 36.9374 31.0596 37.497 31.75 37.497H36.75C37.4404 37.497 38 36.9374 38 36.247V32.747C38 32.0567 37.4404 31.497 36.75 31.497H31.75ZM32 35.997V32.997H36.5V35.997H32ZM30.5 40.247C30.5 39.8328 30.8358 39.497 31.25 39.497H37.25C37.6642 39.497 38 39.8328 38 40.247C38 40.6612 37.6642 40.997 37.25 40.997H31.25C30.8358 40.997 30.5 40.6612 30.5 40.247ZM31.25 42.997C30.8358 42.997 30.5 43.3328 30.5 43.747C30.5 44.1612 30.8358 44.497 31.25 44.497H37.25C37.6642 44.497 38 44.1612 38 43.747C38 43.3328 37.6642 42.997 37.25 42.997H31.25Z" fill="#4D4959"/>
</svg>
