<svg width="22" height="22" viewBox="0 0 22 22" fill="none" xmlns="http://www.w3.org/2000/svg">
<path d="M1.375 9.24999C1.14294 9.24999 0.920376 9.1578 0.756282 8.99371C0.592187 8.82961 0.5 8.60705 0.5 8.37499V1.37674C0.5 1.14468 0.592187 0.922116 0.756282 0.758021C0.920376 0.593927 1.14294 0.50174 1.375 0.50174H8.375C8.60706 0.50174 8.82962 0.593927 8.99372 0.758021C9.15781 0.922116 9.25 1.14468 9.25 1.37674V8.37499C9.25 8.60705 9.15781 8.82961 8.99372 8.99371C8.82962 9.1578 8.60706 9.24999 8.375 9.24999H1.375ZM13.625 9.24999C13.3929 9.24999 13.1704 9.1578 13.0063 8.99371C12.8422 8.82961 12.75 8.60705 12.75 8.37499V1.37674C12.75 1.14468 12.8422 0.922116 13.0063 0.758021C13.1704 0.593927 13.3929 0.50174 13.625 0.50174H20.6232C20.8553 0.50174 21.0779 0.593927 21.242 0.758021C21.4061 0.922116 21.4982 1.14468 21.4982 1.37674V8.37499C21.4982 8.60705 21.4061 8.82961 21.242 8.99371C21.0779 9.1578 20.8553 9.24999 20.6232 9.24999H13.625ZM1.375 21.5C1.14294 21.5 0.920376 21.4078 0.756282 21.2437C0.592187 21.0796 0.5 20.8571 0.5 20.625V13.625C0.5 13.3929 0.592187 13.1704 0.756282 13.0063C0.920376 12.8422 1.14294 12.75 1.375 12.75H8.375C8.60706 12.75 8.82962 12.8422 8.99372 13.0063C9.15781 13.1704 9.25 13.3929 9.25 13.625V20.625C9.25 20.8571 9.15781 21.0796 8.99372 21.2437C8.82962 21.4078 8.60706 21.5 8.375 21.5H1.375ZM13.625 21.5C13.3929 21.5 13.1704 21.4078 13.0063 21.2437C12.8422 21.0796 12.75 20.8571 12.75 20.625V13.625C12.75 13.3929 12.8422 13.1704 13.0063 13.0063C13.1704 12.8422 13.3929 12.75 13.625 12.75H20.6232C20.8553 12.75 21.0779 12.8422 21.242 13.0063C21.4061 13.1704 21.4982 13.3929 21.4982 13.625V20.625C21.4982 20.8571 21.4061 21.0796 21.242 21.2437C21.0779 21.4078 20.8553 21.5 20.6232 21.5H13.625Z" fill="#4D4959"/>
</svg>
