<svg width="76" height="76" viewBox="0 0 76 76" fill="none" xmlns="http://www.w3.org/2000/svg">
<path d="M38 33.4971C35.5147 33.4971 33.5 35.5118 33.5 37.9971C33.5 40.4824 35.5147 42.4971 38 42.4971C39.3488 42.4971 40.559 41.9036 41.3838 40.9636C42.0787 40.1716 42.5 39.1335 42.5 37.9971C42.5 37.5371 42.431 37.0933 42.3028 36.6754C41.7382 34.8351 40.0253 33.4971 38 33.4971ZM35 37.9971C35 36.3402 36.3431 34.9971 38 34.9971C39.6569 34.9971 41 36.3402 41 37.9971C41 39.6539 39.6569 40.9971 38 40.9971C36.3431 40.9971 35 39.6539 35 37.9971ZM45.7093 46.3918L43.9818 45.6334C43.4876 45.4167 42.9071 45.4485 42.44 45.7189C41.9729 45.9894 41.675 46.4663 41.6157 47.0036L41.408 48.8826C41.3651 49.27 41.084 49.5887 40.7055 49.679C38.9263 50.1031 37.0725 50.1031 35.2933 49.679C34.9148 49.5887 34.6336 49.27 34.5908 48.8826L34.3834 47.0063C34.3225 46.4701 34.0112 45.9946 33.5445 45.7251C33.0778 45.4556 32.5112 45.4239 32.0186 45.6394L30.2907 46.3979C29.9328 46.555 29.5149 46.4688 29.2481 46.1829C28.0047 44.8506 27.0792 43.2532 26.5412 41.5107C26.4253 41.1354 26.5592 40.7277 26.8749 40.4947L28.4022 39.3673C28.8372 39.0471 29.0941 38.5385 29.0941 37.9977C29.0941 37.4568 28.8372 36.9482 28.4016 36.6276L26.8753 35.5021C26.5591 35.269 26.4251 34.8608 26.5414 34.4852C27.0804 32.7443 28.0064 31.1486 29.2497 29.8181C29.5168 29.5323 29.9349 29.4464 30.2928 29.6039L32.013 30.361C32.5079 30.5787 33.077 30.5458 33.5462 30.2712C34.0133 29.9997 34.3244 29.5223 34.3844 28.9849L34.5933 27.1072C34.637 26.715 34.9245 26.394 35.3089 26.3084C36.19 26.112 37.0891 26.0077 38.0131 25.9971C38.9147 26.0075 39.8128 26.1119 40.6928 26.3085C41.077 26.3943 41.3643 26.7152 41.4079 27.1072L41.617 28.9864C41.7116 29.8492 42.4387 30.5027 43.3055 30.5036C43.5385 30.504 43.769 30.4554 43.9843 30.36L45.7048 29.6027C46.0626 29.4452 46.4807 29.5311 46.7478 29.8169C47.9912 31.1474 48.9172 32.7431 49.4561 34.484C49.5723 34.8593 49.4386 35.2673 49.1228 35.5005L47.5978 36.6267C47.1628 36.947 46.9 37.4556 46.9 37.9964C46.9 38.5373 47.1628 39.0459 47.5988 39.3668L49.1251 40.4935C49.441 40.7266 49.5748 41.1346 49.4586 41.5101C48.9198 43.2506 47.9944 44.8462 46.7517 46.1769C46.4849 46.4627 46.0671 46.5488 45.7093 46.3918ZM40.263 46.1936C40.4982 45.4655 40.9889 44.8259 41.6884 44.4208C42.5702 43.9102 43.6536 43.8517 44.5841 44.2597L45.9281 44.8496C46.791 43.8508 47.4593 42.6983 47.8981 41.4522L46.7095 40.5748L46.7086 40.5741C45.898 39.977 45.4 39.0247 45.4 37.9964C45.4 36.9689 45.8974 36.0165 46.7073 35.4197L46.7085 35.4188L47.8957 34.542C47.4567 33.2958 46.7881 32.1434 45.9248 31.1447L44.5922 31.7313L44.5899 31.7323C44.1844 31.9116 43.7472 32.0042 43.3039 32.0036C41.6715 32.0015 40.3046 30.7713 40.1261 29.1517L40.1259 29.1499L39.9635 27.69C39.3202 27.5703 38.6677 27.5057 38.013 27.4972C37.3389 27.5059 36.6821 27.5707 36.0377 27.6903L35.8751 29.1515C35.7625 30.1597 35.1793 31.0561 34.3019 31.5669C33.4194 32.0826 32.3445 32.1454 31.4087 31.734L30.0727 31.1459C29.2095 32.1445 28.5409 33.2968 28.102 34.5429L29.2918 35.4203C30.1112 36.0239 30.5941 36.9807 30.5941 37.9977C30.5941 39.0143 30.1114 39.9712 29.2924 40.5746L28.1016 41.4536C28.54 42.7014 29.2085 43.8555 30.0721 44.8557L31.4174 44.2652C32.3474 43.8583 33.4157 43.9185 34.2947 44.4262C35.174 44.934 35.7593 45.829 35.8738 46.837L35.8744 46.8415L36.0362 48.3058C37.3326 48.5608 38.6662 48.5608 39.9626 48.3058L40.1247 46.8388C40.1491 46.6187 40.1955 46.4025 40.263 46.1936Z" fill="#4D4959"/>
</svg>
